<svg width="18" height="18" viewBox="0 0 18 18" fill="none" xmlns="http://www.w3.org/2000/svg">
<path fill-rule="evenodd" clip-rule="evenodd" d="M12.5774 12.5775C12.9029 12.2521 13.4305 12.2521 13.7559 12.5775L17.0893 15.9108C17.4147 16.2363 17.4147 16.7639 17.0893 17.0893C16.7638 17.4148 16.2362 17.4148 15.9108 17.0893L12.5774 13.756C12.252 13.4306 12.252 12.9029 12.5774 12.5775Z" fill="#F1F1F1"/>
<path fill-rule="evenodd" clip-rule="evenodd" d="M8.16669 2.33341C4.94502 2.33341 2.33335 4.94509 2.33335 8.16675C2.33335 11.3884 4.94502 14.0001 8.16669 14.0001C11.3884 14.0001 14 11.3884 14 8.16675C14 4.94508 11.3884 2.33341 8.16669 2.33341ZM0.666687 8.16675C0.666687 4.02461 4.02455 0.666748 8.16669 0.666748C12.3088 0.666748 15.6667 4.02461 15.6667 8.16675C15.6667 12.3089 12.3088 15.6667 8.16669 15.6667C4.02455 15.6667 0.666687 12.3089 0.666687 8.16675Z" fill="#F1F1F1"/>
</svg>
